<?xml version="1.0" encoding="UTF-8"?>
<svg xmlns="http://www.w3.org/2000/svg" viewBox="0 0 220.44 221.23">
  <defs>
    <style>
      .cls-1 {
        stroke-width: 2px;
      }

      .cls-1, .cls-2, .cls-3 {
        fill: none;
        stroke-miterlimit: 10;
      }

      .cls-1, .cls-3 {
        stroke: #ecd2d3;
      }

      .cls-2 {
        stroke: #e1ced4;
        stroke-width: 3px;
      }

      .cls-4 {
        fill: #202045;
      }

      .cls-3 {
        stroke-width: 4px;
      }
    </style>
  </defs>
  <g id="tło">
    <path class="cls-4" d="M220.25,111.23c0,60.75-49.24,110-110,110S.25,171.98.25,111.23,49.5,1.23,110.25,1.23s110,49.25,110,110Z"/>
  </g>
  <g id="Warstwa_1">
    <g id="okno">
      <g>
        <rect class="cls-2" x="93.92" y="85.32" width="29.63" height="17.33"/>
        <path class="cls-2" d="M123.55,102.65h-29.63v-25.04c0-8.18,6.63-14.81,14.81-14.81h0c8.18,0,14.81,6.63,14.81,14.81v25.04Z"/>
      </g>
    </g>
    <g>
      <rect class="cls-1" x="128.32" y="142.03" width="31.36" height="11.04" rx="5" ry="5"/>
      <line class="cls-1" x1="139.33" y1="153.07" x2="130.86" y2="171.94"/>
      <line class="cls-1" x1="148.37" y1="153.07" x2="156.99" y2="171.94"/>
    </g>
    <polyline class="cls-3" points="64.51 171.34 35.42 171.34 35.42 95.09 107.79 18.3 180.17 95.09 180.17 171.34 154.87 171.34"/>
    <g id="fotel">
      <path class="cls-1" d="M116.23,137.64v20.11h-58.17v-20.11c0-2.76,2.24-5,5-5h1.21v-1.57c0-6.62,5.38-12,12-12h21.74c6.63,0,12,5.38,12,12v1.57h1.22c2.76,0,5,2.24,5,5Z"/>
    </g>
    <line class="cls-1" x1="63.57" y1="157.75" x2="63.57" y2="171.49"/>
    <line class="cls-1" x1="110.01" y1="157.75" x2="110.01" y2="171.49"/>
    <line class="cls-1" x1="72.04" y1="157.75" x2="72.04" y2="167.5"/>
    <line class="cls-1" x1="102.25" y1="157.75" x2="102.39" y2="167.5"/>
    <line class="cls-1" x1="64.27" y1="132.64" x2="64.28" y2="145.43"/>
    <line class="cls-1" x1="110.01" y1="132.64" x2="110.01" y2="145.43"/>
    <line class="cls-1" x1="63.28" y1="145.43" x2="111.01" y2="145.51"/>
  </g>
</svg>